# xmcd CD database file
#
# Track frame offsets:
#	187
#	27872
#	42805
#	70252
#	85710
#	100032
#	119297
#	132287
#	162655
#	176525
#	208495
#	218947
#	249350
#	260555
#
# Disc length: 3634 seconds
#
# Revision: 0
# Processed by: cddbd v1.5PL3 Copyright (c) Steve Scherf et al.
# Submitted via: CDex 1.51
#
DISCID=c70e300e
DTITLE=BEST - THE BEST JAZZ STANDARDS
DYEAR=1900
DGENRE=Jazz
TTITLE0=STARDUST
TTITLE1=MANHATTAN
TTITLE2=SUMMERTIME
TTITLE3=MY FUNNY VALENTITE
TTITLE4=AS TIME GOES BY
TTITLE5=TEA FOR TWO
TTITLE6=NIGHT AND DAY
TTITLE7=MISTY
TTITLE8=TAKE THE "A" TRAIN
TTITLE9=SATIN DOLL
TTITLE10=THE SHADOW OF YOUR SMILE
TTITLE11=BYE BYE BLACKBIRD
TTITLE12=BLUE MOON
TTITLE13=THE DAYS OF WINE AND ROSES
EXTD=
EXTT0=
EXTT1=
EXTT2=
EXTT3=
EXTT4=
EXTT5=
EXTT6=
EXTT7=
EXTT8=
EXTT9=
EXTT10=
EXTT11=
EXTT12=
EXTT13=
PLAYORDER=
